<?xml version="1.0" encoding="UTF-8" standalone="no"?>
<!-- Created with Inkscape (http://www.inkscape.org/) -->

<svg
   xmlns:dc="http://purl.org/dc/elements/1.1/"
   xmlns:cc="http://creativecommons.org/ns#"
   xmlns:rdf="http://www.w3.org/1999/02/22-rdf-syntax-ns#"
   xmlns:svg="http://www.w3.org/2000/svg"
   xmlns="http://www.w3.org/2000/svg"
   xmlns:sodipodi="http://sodipodi.sourceforge.net/DTD/sodipodi-0.dtd"
   xmlns:inkscape="http://www.inkscape.org/namespaces/inkscape"
   id="svg3004"
   version="1.1"
   inkscape:version="0.48.5 r10040"
   width="407.47082"
   height="167.39145"
   xml:space="preserve"
   sodipodi:docname="aufkleber.pdf"><metadata
     id="metadata3010"><rdf:RDF><cc:Work
         rdf:about=""><dc:format>image/svg+xml</dc:format><dc:type
           rdf:resource="http://purl.org/dc/dcmitype/StillImage" /><dc:title></dc:title></cc:Work></rdf:RDF></metadata><defs
     id="defs3008" /><sodipodi:namedview
     pagecolor="#ffffff"
     bordercolor="#666666"
     borderopacity="1"
     objecttolerance="10"
     gridtolerance="10"
     guidetolerance="10"
     inkscape:pageopacity="0"
     inkscape:pageshadow="2"
     inkscape:window-width="1916"
     inkscape:window-height="1157"
     id="namedview3006"
     showgrid="false"
     showguides="true"
     inkscape:guide-bbox="true"
     inkscape:zoom="2.571797"
     inkscape:cx="206.11903"
     inkscape:cy="75.803565"
     inkscape:window-x="0"
     inkscape:window-y="20"
     inkscape:window-maximized="0"
     inkscape:current-layer="g3012"><sodipodi:guide
       orientation="1,0"
       position="255.07456,136.09161"
       id="guide4306" /><sodipodi:guide
       orientation="1,0"
       position="15.164494,103.81846"
       id="guide4308" /><sodipodi:guide
       orientation="1,0"
       position="377.16818,78.155468"
       id="guide4314" /><sodipodi:guide
       orientation="1,0"
       position="225.91208,54.825478"
       id="guide3028" /></sodipodi:namedview><g
     id="g3012"
     inkscape:groupmode="layer"
     inkscape:label="aufkleber"
     transform="matrix(1.25,0,0,-1.25,0,167.39145)"><g
       id="g3014"><path
         d="m 2.27,131.276 321.703,0 0,-120.039 -321.703,0 0,120.039 z"
         style="fill:#000000;fill-opacity:1;fill-rule:nonzero;stroke:none"
         id="path3016" /><path
         d="m 311.617,59.425 12.004,0 0,-12.004 -12.004,0 0,12.004 z"
         style="fill:#ff00ff;fill-opacity:1;fill-rule:nonzero;stroke:none"
         id="path3018" /><path
         d="m 25.078,107.269 12.004,0 0,12.004 24.008,0 0,-72.024 24.008,0 0,-12.004 -72.024,0 0,12.004 24.008,0 0,48.016 -12.004,0 0,12.004 z"
         style="fill:#ffffff;fill-opacity:1;fill-rule:nonzero;stroke:none"
         id="path3020" /><path
         d="m 97.102,107.269 12.003,0 0,12.004 60.02,0 0,-12.004 12.004,0 0,-12.004 -24.008,0 0,12.004 -36.012,0 0,-60.02 36.012,0 0,12.004 24.008,0 0,-12.004 -12.004,0 0,-12.004 -60.02,0 0,12.004 -12.003,0 0,60.02 z"
         style="fill:#ffffff;fill-opacity:1;fill-rule:nonzero;stroke:none"
         id="path3022" /><g
         id="g3024"
         transform="matrix(1,0,0,-1,0,133.91316)"><path
           d="m 97.102,26.645 12.003,0 0,-12.004 60.02,0 0,12.004 12.004,0 0,12.003 -24.008,0 0,-12.003 -36.012,0 0,60.019 36.012,0 0,-12.004 24.008,0 0,12.004 -12.004,0 0,12.004 -60.02,0 0,-12.004 -12.003,0 0,-60.019 z"
           style="fill:none;stroke:#00ff00;stroke-opacity:0.5;stroke-width:24.007659;stroke-linecap:butt;stroke-linejoin:miter;stroke-miterlimit:4;stroke-dasharray:none"
           id="path3026" /></g><path
         d="m 205.133,83.261 0,24.008 12.004,0 0,12.004 60.019,0 0,-12.004 12.004,0 0,-24.008 -12.004,0 0,-12.004 -12.004,0 0,-12.004 -12.004,0 0,-12.004 48.016,0 0,-12.004 -96.031,0 0,12.004 12.004,0 0,12.004 12.004,0 0,12.004 12.004,0 0,12.004 12.003,0 0,12.004 12.004,0 0,12.004 -36.011,0 0,-24.008 -24.008,0 z"
         style="fill:#ffffff;fill-opacity:1;fill-rule:nonzero;stroke:none"
         id="path3028" /><path
         d="M 2.7995989,9.9531293 323.621,8.656597 323.47987,12.308 l -119.41387,0 0,12.004 -12.004,0 0,-12.004 -180.058,0 0,12.004 -9.5154677,0 z"
         style="fill:#ffffff;fill-opacity:1;fill-rule:nonzero;stroke:#00ffff;stroke-width:0.80000001;stroke-miterlimit:4;stroke-opacity:1;stroke-dasharray:none"
         id="path3030"
         inkscape:connector-curvature="0"
         sodipodi:nodetypes="ccccccccccc" /><g
         id="g3034"
         transform="matrix(1,0,0,-1,0,133.91316)"><path
           d="m 2.3431996,74.242 23.0748004,0 0,-24.008 -12.004,0 0,-36.011 12.004,0 0,-12.004 48.012,0 0,12.004 24.008,0 0,-12.004 84.027,0 0,12.004 24.008,0 0,-12.004 96.031,0 0,12.004 12.004,0 0,12.004 10.44867,0 0.31106,-28.2505323 L 2.3431996,-2.3345989 z"
           style="fill:#ffffff;fill-opacity:1;fill-rule:nonzero;stroke:#00ffff;stroke-width:0.944543;stroke-linecap:butt;stroke-linejoin:miter;stroke-miterlimit:4;stroke-opacity:1;stroke-dasharray:none"
           id="path3036"
           inkscape:connector-curvature="0"
           sodipodi:nodetypes="ccccccccccccccccccccccc" /></g></g><text
       xml:space="preserve"
       style="font-size:5.34870481px;font-style:normal;font-variant:normal;font-weight:normal;font-stretch:normal;line-height:125%;letter-spacing:0px;word-spacing:0px;fill:#ffffff;fill-opacity:1;stroke:none;font-family:Monospace;-inkscape-font-specification:Monospace"
       x="20.065411"
       y="-15.327462"
       id="text4316"
       sodipodi:linespacing="125%"
       transform="scale(1,-1)"><tspan
         sodipodi:role="line"
         id="tspan4318"
         x="20.065411"
         y="-15.327462">Chaos Cologne   <tspan
   style="font-style:italic;-inkscape-font-specification:Monospace Italic"
   id="tspan3008">Edge of Control  </tspan> 16 + 17 May 2015</tspan></text>
<text
       xml:space="preserve"
       style="font-size:5.34870481px;font-style:normal;font-variant:normal;font-weight:normal;font-stretch:normal;line-height:125%;letter-spacing:0px;word-spacing:0px;fill:#ffffff;fill-opacity:1;stroke:none;font-family:Monospace;-inkscape-font-specification:Monospace"
       x="234.06648"
       y="-15.327462"
       id="text4320"
       sodipodi:linespacing="125%"
       transform="scale(1,-1)"><tspan
         sodipodi:role="line"
         id="tspan4322"
         x="234.06648"
         y="-15.327462">http://chaos.cologne/</tspan></text>
</g></svg>